# xmcd CD database file
#
# Track frame offsets:
#	151
#	51149
#	81281
#	102655
#	141038
#	192683
#	214483
#
# Disc length: 3253 seconds
#
# Revision: 0
# Processed by: cddbd v1.5.1PL0 Copyright (c) Steve Scherf et al.
# Submitted via: CDex 1.50Beta7
#
DISCID=6e0cb307
DTITLE=Laura MacDonald Sextet - Awakenings
DYEAR=2004
DGENRE=Jazz
TTITLE0=Angles
TTITLE1=Awakenings
TTITLE2=One Up, Two Down
TTITLE3=Meaning
TTITLE4=Fantasy and Function
TTITLE5=Whispers
TTITLE6=Risks
EXTD=YEAR: 2004
EXTT0=
EXTT1=
EXTT2=
EXTT3=
EXTT4=
EXTT5=
EXTT6=
PLAYORDER=
